<?xml version="1.0" encoding="utf-8"?>
<!-- Generator: Adobe Illustrator 19.1.0, SVG Export Plug-In . SVG Version: 6.00 Build 0)  -->
<svg version="1.1" id="Layer_1" xmlns="http://www.w3.org/2000/svg" xmlns:xlink="http://www.w3.org/1999/xlink" x="0px" y="0px"
	 viewBox="-904.4 263.7 580.7 343.7" style="enable-background:new -904.4 263.7 580.7 343.7;" xml:space="preserve">
<style type="text/css">
	.st0{fill:#0077BE;}
</style>
<g>
	<path class="st0" d="M-525.6,336.3l-83.4-40.4c-1.9-0.9-4.2-0.9-6.1,0l-83.4,40.4c-2.9,1.4-4.5,4.7-3.8,7.9
		c0.7,3.2,3.6,5.4,6.8,5.4h166.9c3.3,0,6.1-2.3,6.8-5.4C-521.1,340.9-522.7,337.7-525.6,336.3z M-665.1,335.6l52.9-25.7l52.9,25.7
		H-665.1z"/>
	<path class="st0" d="M-323.7,425.2V389c0-3.6-2.9-6.4-6.4-6.4h-135.7V378c0-1.3-0.2-2.6-0.5-3.8h1.2c3.5,0,6.8-1.6,9.1-4.3
		c2-2.4,3.2-5.6,3.2-8.9V352c0-4.7-2.2-8.9-5.9-11.3l-0.3-0.2l-144.4-74.3c-5.3-3.3-11.8-3.3-17.1,0l-144,74.1l-0.7,0.4
		c-3.7,2.4-5.9,6.7-5.9,11.3v8.8c0,6.3,4,11.5,9.4,12.9c-0.4,1.3-0.6,2.7-0.6,4.2v5.6h-135.5c-3.6,0-6.4,2.9-6.4,6.4v36.2
		c0,3.6,2.9,6.4,6.4,6.4h2.3c-0.4,1.3-0.6,2.6-0.6,4v7.1c0,7.5,6.5,13.6,14.6,13.6v0.7c0,1.6,0.6,3.1,1.7,4.3v86.8
		c-1.1,1.2-1.7,2.7-1.7,4.3v0.7c-8,0-14.6,6.1-14.6,13.6v7.1c0,0.7,0.1,1.3,0.2,1.9c-4.9,2.1-8.3,6.5-8.3,11.5v6.4
		c0,7.1,6.5,12.8,14.6,12.8H-758c0-0.1-0.1-0.2-0.1-0.2c0.9,0.1,1.8,0.2,2.7,0.2h282.5c2,0,3.9-0.4,5.7-1h129
		c8,0,14.6-5.7,14.6-12.8v-6.4c0-5.1-3.4-9.5-8.3-11.5c0.1-0.6,0.2-1.3,0.2-1.9v-7.1c0-7.5-6.5-13.6-14.6-13.6v-0.7
		c0-1.6-0.6-3.1-1.7-4.3v-86.8c1.1-1.2,1.7-2.7,1.7-4.3v-0.7c8,0,14.6-6.1,14.6-13.6v-7.1c0-1.4-0.2-2.7-0.6-4h2.3
		C-326.6,431.6-323.7,428.7-323.7,425.2z M-361,545.3h-19.6v-74.8h19.6V545.3z M-393.6,461.2v86.8c-1.1,1.2-1.7,2.7-1.7,4.3v0.7
		h-16.3v-0.7c0-1.6-0.6-3.1-1.7-4.3v-86.8c1.1-1.2,1.7-2.7,1.7-4.3v-0.7h16.3v0.7C-395.2,458.5-394.6,460-393.6,461.2z
		 M-445.7,545.3v-74.8h19.6v74.8H-445.7z M-458.6,461.2v86.8c-1.1,1.2-1.7,2.7-1.7,4.3v0.7h-6.8c-1.9-4.8-6.1-8.4-11.2-9.5v-82.3
		c1.1-1.2,1.7-2.7,1.7-4.3v-0.7h16.3v0.7C-460.3,458.5-459.7,460-458.6,461.2z M-867.1,546.3v-74.8h19.6v74.8H-867.1z M-834.6,549.1
		v-86.8c1.1-1.2,1.7-2.7,1.7-4.3v-0.7h16.3v0.7c0,1.6,0.6,3.1,1.7,4.3v86.8c-1.1,1.2-1.7,2.7-1.7,4.3v0.7h-16.3v-0.7
		C-832.9,551.8-833.5,550.3-834.6,549.1z M-802,546.3v-74.8h19.6v74.8H-802z M-769.5,549.1v-86.8c1.1-1.2,1.7-2.7,1.7-4.3v-0.7h16.3
		v0.7c0,1.6,0.6,3.1,1.7,4.3v81.2c-5.5,1.2-10,5.3-11.7,10.6h-6.2v-0.7C-767.8,551.8-768.4,550.3-769.5,549.1z M-676,402.6v1.8
		c0,2,0.7,3.9,1.8,5.4v126.1c-1.1,1.5-1.8,3.3-1.8,5.4v1.8h-17.7v-1.8c0-2-0.7-3.9-1.8-5.4V409.8c1.1-1.5,1.8-3.3,1.8-5.4v-1.8H-676
		z M-497.6,532.5h-21.3V420.3h21.3V532.5z M-532.9,409.8v126.1c-1.1,1.5-1.8,3.3-1.8,5.4v1.8h-17.7v-1.8c0-2-0.7-3.9-1.8-5.4V409.8
		c1.1-1.5,1.8-3.3,1.8-5.4v-1.8h17.7v1.8C-534.7,406.5-534,408.3-532.9,409.8z M-589.5,532.5V420.3h21.3v112.2H-589.5z
		 M-603.5,409.8v126.1c-1.1,1.5-1.8,3.3-1.8,5.4v1.8H-623v-1.8c0-2-0.7-3.9-1.8-5.4V409.8c1.1-1.5,1.8-3.3,1.8-5.4v-1.8h17.7v1.8
		C-605.3,406.5-604.6,408.3-603.5,409.8z M-660.1,532.5V420.3h21.3v112.2H-660.1z M-709.4,420.3v112.2h-21.3V420.3H-709.4z
		 M-748.4,567.8V559c0-1,0.8-1.8,1.8-1.8h264.8c1,0,1.8,0.8,1.8,1.8v8.8c0,1-0.8,1.8-1.8,1.8h-264.8
		C-747.6,569.6-748.4,568.8-748.4,567.8z M-336.6,418.7h-146.9v-8.9c1.1-1.5,1.8-3.3,1.8-5.4v-1.8h0c5.5,0,10.4-2.9,13.2-7.2h131.9
		V418.7z M-757.2,352.2l143.3-73.7l0.7-0.4c0.8-0.5,1.6-0.5,2.4,0l0.3,0.2l143.6,73.9v8h-290.2V352.2z M-748.4,378
		c0-1,0.8-1.8,1.8-1.8h264.8c1,0,1.8,0.8,1.8,1.8v4.6h-0.3c0,0.2,0,0.5,0,0.7c0.1,0,0.2,0.1,0.2,0.1v3.4c0,1-0.8,1.8-1.8,1.8h-264.8
		c-1,0-1.8-0.8-1.8-1.8v-2.4c0.1-0.1,0.3-0.1,0.4-0.2c0-0.2,0-0.5,0-0.7h-0.5V378z M-891.5,396.4h132.4c2.9,3.7,7.4,6.2,12.5,6.2
		v1.8c0,2,0.7,3.9,1.8,5.4v9.9h-146.7V396.4z M-883.4,443.7l0-7.1c0.1-0.2,0.6-0.7,1.7-0.7h136.9v8.4h-136.9
		C-882.8,444.4-883.3,443.8-883.4,443.7z M-881.7,566.9h119.3v0.8c0,1.1,0.1,2.2,0.3,3.2c-2.3,1-4.3,2.5-5.8,4.3h-113.8
		c-1.1,0-1.6-0.6-1.7-0.7l0-7C-883.3,567.5-882.8,566.9-881.7,566.9z M-891.5,594v-5.3c0.3-0.2,0.9-0.4,1.7-0.4h8.1h110.4v4.2
		c0,0.7,0.1,1.4,0.2,2h-118.7C-890.6,594.4-891.2,594.2-891.5,594z M-471.1,592.4c0,0.2-0.6,0.9-1.8,0.9h-282.5
		c-1.2,0-1.8-0.7-1.8-0.9v-7.9c0-0.2,0.6-0.9,1.8-0.9h8.8h264.8h8.8c1.2,0,1.8,0.7,1.8,0.9V592.4z M-336.6,593
		c-0.3,0.2-0.9,0.4-1.7,0.4h-118.8c0-0.3,0.1-0.7,0.1-1v-5.2h110.6h8.1c0.8,0,1.4,0.2,1.7,0.4V593z M-344.8,566.6l0,7
		c-0.1,0.1-0.6,0.7-1.7,0.7h-114.9c-1.4-1.4-3-2.5-4.9-3.3c0.2-1,0.3-2.1,0.3-3.2v-1.8h119.5C-345.4,565.9-344.8,566.5-344.8,566.6z
		 M-344.8,442.7c-0.1,0.1-0.6,0.7-1.7,0.7h-137.1V435h137.1c1.1,0,1.6,0.6,1.7,0.7L-344.8,442.7z"/>
</g>
</svg>
