<?xml version="1.0" encoding="utf-8"?>
<!-- Generator: Adobe Illustrator 19.1.0, SVG Export Plug-In . SVG Version: 6.00 Build 0)  -->
<svg version="1.1" id="Capa_1" xmlns="http://www.w3.org/2000/svg" xmlns:xlink="http://www.w3.org/1999/xlink" x="0px" y="0px"
	 viewBox="-707 96.3 450 514" style="enable-background:new -707 96.3 450 514;" xml:space="preserve">
<style type="text/css">
	.st0{fill:#0077BE;}
</style>
<g>
	<path class="st0" d="M-599.3,258.3h26.2c1,2.7,2.1,5.5,3.4,8.1l-18.5,18.5c-4.5,4.5-4.5,11.9,0,16.5l30.2,30.2
		c4.5,4.5,11.9,4.5,16.5,0l18.5-18.5c2.6,1.2,5.4,2.4,8.1,3.4v26.2c0,6.4,5.2,11.7,11.7,11.7h42.7c6.4,0,11.7-5.2,11.7-11.7v-26.2
		c2.7-1,5.5-2.1,8.1-3.4l18.5,18.5c4.5,4.5,11.9,4.5,16.5,0l30.2-30.2c4.5-4.5,4.5-11.9,0-16.5l-18.5-18.5c1.2-2.6,2.4-5.4,3.4-8.1
		h26.2c6.4,0,11.7-5.2,11.7-11.7V204c0-6.4-5.2-11.7-11.7-11.7h-26.2c-1-2.7-2.1-5.5-3.4-8.1l18.5-18.5c4.5-4.5,4.5-11.9,0-16.5
		l-30.2-30.2c-4.5-4.5-11.9-4.5-16.5,0l-18.5,18.5c-2.6-1.2-5.4-2.4-8.1-3.4V108c0-6.4-5.2-11.7-11.7-11.7h-42.7
		c-6.4,0-11.7,5.2-11.7,11.7v26.2c-2.7,1-5.5,2.1-8.1,3.4l-18.5-18.5c-4.5-4.5-11.9-4.5-16.5,0l-30.2,30.2c-4.5,4.5-4.5,11.9,0,16.5
		l18.5,18.5c-1.2,2.6-2.4,5.4-3.4,8.1h-26.2c-6.4,0-11.7,5.2-11.7,11.7v42.7C-611,253.1-605.8,258.3-599.3,258.3z M-553.2,206.9
		c1.7-6.7,4.4-13,7.8-18.9c2.7-4.6,2-10.4-1.8-14.2l-16.4-16.4l13.6-13.7l16.4,16.4c3.8,3.8,9.6,4.5,14.2,1.8
		c5.9-3.5,12.3-6.1,18.9-7.8c5.2-1.3,8.7-6,8.8-11.3v-23.1h19.3v23.1c0,5.3,3.6,10,8.7,11.3c6.7,1.7,13,4.4,18.9,7.8
		c4.6,2.7,10.4,2,14.2-1.8l16.4-16.4l13.7,13.6l-16.4,16.4c-3.8,3.8-4.5,9.6-1.8,14.2c3.5,5.9,6.1,12.3,7.8,18.9
		c1.3,5.2,6,8.7,11.3,8.8h23.1V235h-23.1c-5.3,0-10,3.6-11.3,8.8c-1.7,6.6-4.4,13-7.8,18.9c-2.7,4.6-2,10.4,1.8,14.2l16.4,16.4
		l-13.7,13.7l-16.4-16.4c-3.8-3.8-9.6-4.5-14.2-1.8c-5.9,3.5-12.3,6.1-18.9,7.8c-5.2,1.3-8.7,6-8.8,11.3V331h-19.3l0-23.1
		c0-5.3-3.6-10-8.8-11.3c-6.7-1.7-13-4.4-18.9-7.8c-4.6-2.7-10.4-2-14.2,1.8l-16.4,16.4l-13.7-13.7l16.4-16.4
		c3.8-3.8,4.5-9.6,1.8-14.2c-3.5-5.9-6.1-12.3-7.8-18.9c-1.3-5.2-6-8.7-11.3-8.8h-23.1v-19.3h23.1
		C-559.2,215.7-554.6,212.1-553.2,206.9z"/>
	<path class="st0" d="M-482,269c24.1,0,43.7-19.6,43.7-43.7s-19.6-43.7-43.7-43.7s-43.7,19.6-43.7,43.7S-506.1,269-482,269z
		 M-482,205c11.2,0,20.3,9.1,20.3,20.3s-9.1,20.3-20.3,20.3c-11.2,0-20.3-9.1-20.3-20.3S-493.2,205-482,205z"/>
	<path class="st0" d="M-546,469.7C-546,469.7-546,469.7-546,469.7c-0.9,0.1-1.7,0.1-2.5,0c-5.1-0.3-9.7-2.6-13.1-6.4
		c-1.2-1.4-2.2-2.9-3-4.6c18.3-15.2,30.3-42.2,30.3-73.6v-21c0-0.6-0.4-1-1-1h-21.3c-0.6,0-1,0.4-1,1v21c0,34.9-18.7,63.3-41.7,63.3
		c-23,0-41.7-28.4-41.7-63.3v-19.4c5.2-19,22-32.1,41.7-32.6c0.5,0,1-0.5,1-1v-21.3c0-0.3-0.1-0.5-0.3-0.7c-0.2-0.2-0.4-0.3-0.7-0.3
		c-30.7,0.5-57.3,21.7-64.6,51.5c-0.2,0.9-0.3,1.9-0.3,2.8v21c0,31.4,12,58.4,30.3,73.6c-1.1,2.4-2.7,4.5-4.7,6.3
		c-3.8,3.4-8.7,5-13.9,4.7c-29.9,0-54.3,24.4-54.3,54.3v85.3c0,0.6,0.4,1,1,1h21.3c0.6,0,1-0.4,1-1V524c0-17.1,13.9-31,31-31
		c0.8,0,1.7,0,2.5,0c11.3-0.3,21.9-5.1,29.6-13.3c2.9-3,5.2-6.4,7-10c4.6,1.3,9.3,2,14.2,2c4.9,0,9.6-0.7,14.2-2
		c7.2,14.3,22.2,23.9,39.1,23.3c17.1,0,31,13.9,31,31v85.3c0,0.6,0.4,1,1,1h21.3c0.6,0,1-0.4,1-1V524
		C-491.7,494.1-516.1,469.7-546,469.7z"/>
	<path class="st0" d="M-642,533.7h-21.3c-0.6,0-1,0.4-1,1v74.7c0,0.6,0.4,1,1,1h21.3c0.6,0,1-0.4,1-1v-74.7
		C-641,534.1-641.4,533.7-642,533.7z"/>
	<path class="st0" d="M-535.3,533.7h-21.3c-0.6,0-1,0.4-1,1v74.7c0,0.6,0.4,1,1,1h21.3c0.6,0,1-0.4,1-1v-74.7
		C-534.3,534.1-534.8,533.7-535.3,533.7z"/>
	<path class="st0" d="M-311.3,469.7C-311.3,469.7-311.4,469.7-311.3,469.7c-0.9,0.1-1.7,0.1-2.5,0c-5.1-0.3-9.7-2.6-13.1-6.4
		c-1.2-1.4-2.2-2.9-3-4.6c18.3-15.2,30.3-42.2,30.3-73.6v-21c0-1-0.1-1.9-0.3-2.8c-7.3-29.8-33.9-51-64.6-51.5
		c-0.3,0-0.5,0.1-0.7,0.3c-0.2,0.2-0.3,0.4-0.3,0.7V332c0,0.5,0.4,1,1,1c19.7,0.5,36.4,13.6,41.7,32.6V385
		c0,34.9-18.7,63.3-41.7,63.3s-41.7-28.4-41.7-63.3v-21c0-0.6-0.4-1-1-1h-21.3c-0.6,0-1,0.4-1,1v21c0,31.4,12,58.4,30.3,73.6
		c-1.1,2.4-2.7,4.5-4.7,6.3c-3.8,3.4-8.8,5-13.9,4.7c-29.9,0-54.3,24.4-54.3,54.3v85.3c0,0.6,0.4,1,1,1h21.3c0.6,0,1-0.4,1-1V524
		c0-17.1,13.9-31,31-31c0.8,0,1.7,0,2.5,0c16.1-0.5,29.9-9.9,36.7-23.3c4.6,1.3,9.3,2,14.2,2c4.9,0,9.6-0.7,14.2-2
		c7.2,14.2,22.2,23.8,39.1,23.3c17.1,0,31,13.9,31,31v85.3c0,0.6,0.4,1,1,1h21.3c0.6,0,1-0.4,1-1V524
		C-257,494.1-281.4,469.7-311.3,469.7z"/>
	<path class="st0" d="M-407.3,533.7h-21.3c-0.6,0-1,0.4-1,1v74.7c0,0.6,0.4,1,1,1h21.3c0.6,0,1-0.4,1-1v-74.7
		C-406.3,534.1-406.8,533.7-407.3,533.7z"/>
	<path class="st0" d="M-300.7,533.7H-322c-0.6,0-1,0.4-1,1v74.7c0,0.6,0.4,1,1,1h21.3c0.6,0,1-0.4,1-1v-74.7
		C-299.7,534.1-300.1,533.7-300.7,533.7z"/>
</g>
</svg>
