<?xml version="1.0" encoding="utf-8"?>
<!-- Generator: Adobe Illustrator 19.1.0, SVG Export Plug-In . SVG Version: 6.00 Build 0)  -->
<svg version="1.1" id="Capa_1" xmlns="http://www.w3.org/2000/svg" xmlns:xlink="http://www.w3.org/1999/xlink" x="0px" y="0px"
	 viewBox="-758.4 200.4 519 416.6" style="enable-background:new -758.4 200.4 519 416.6;" xml:space="preserve">
<style type="text/css">
	.st0{fill:#0077BE;}
</style>
<g>
	<path class="st0" d="M-678.1,405.2c-53.5,0-75.4,19.4-76.3,20.2c-2.5,2.3-4,5.5-4,8.9v153.6c0,3.4,1.4,6.7,4,8.9
		c0.9,0.8,22.8,20.2,76.3,20.2s75.4-19.4,76.3-20.2c2.5-2.3,4-5.5,4-8.9V434.3c0-3.4-1.4-6.7-4-8.9
		C-602.7,424.5-624.6,405.2-678.1,405.2z M-621.9,530.2c-0.3,0.2-0.7,0.4-1,0.6l-0.5,0.3c-0.9,0.5-1.9,0.9-3,1.5l-0.3,0.1
		c-0.2,0.1-0.4,0.2-0.6,0.3c-1.4,0.6-2.9,1.2-4.5,1.8c-0.2,0.1-0.4,0.1-0.6,0.2l-0.5,0.2c-1.5,0.5-3.2,1.1-4.9,1.6l-0.5,0.1
		c-0.2,0.1-0.4,0.1-0.7,0.2c-2,0.6-4.3,1.1-6.7,1.6c-0.4,0.1-0.7,0.1-1.1,0.2l-0.6,0.1c-2.5,0.5-4.9,0.9-7.4,1.2
		c-0.2,0-0.4,0.1-0.5,0.1c-0.2,0-0.3,0-0.5,0.1c-2.7,0.4-5.7,0.7-9.2,0.9c-0.8,0.1-1.5,0.1-2.3,0.1c-8,0.5-13.6,0.5-21.6,0l-0.3,0
		c-0.7,0-1.4-0.1-2-0.1c-3.5-0.3-6.5-0.5-9.2-0.9c-0.2,0-0.3,0-0.5-0.1c-0.2,0-0.4-0.1-0.6-0.1c-2.5-0.3-4.9-0.8-7.3-1.2l-0.5-0.1
		c-0.4-0.1-0.8-0.1-1.1-0.2c-2.4-0.5-4.7-1.1-6.7-1.6c-0.2-0.1-0.4-0.1-0.7-0.2l-0.5-0.2c-1.8-0.5-3.4-1-5-1.6l-0.5-0.2
		c-0.2-0.1-0.4-0.1-0.5-0.2c-1.6-0.6-3.1-1.2-4.5-1.8c-0.2-0.1-0.4-0.2-0.6-0.3l-0.3-0.1c-1.2-0.5-2.3-1-3.2-1.5l-0.4-0.2
		c-0.4-0.2-0.7-0.4-1-0.6v-24.8c0.2,0.1,0.5,0.2,0.7,0.3l0.6,0.2c1.1,0.4,2.2,0.8,3.4,1.2c0.7,0.2,1.4,0.4,2.1,0.7l0.2,0.1
		c1.2,0.4,2.4,0.7,3.7,1.1c0.9,0.2,1.8,0.5,2.7,0.7c1.3,0.3,2.6,0.6,4,1c1,0.2,2,0.4,3,0.6c1.6,0.3,3.1,0.6,4.5,0.8l0.4,0.1
		c1,0.2,1.9,0.3,2.9,0.5c1.7,0.3,3.5,0.5,5.1,0.7l0.9,0.1c0.8,0.1,1.6,0.2,2.5,0.3c1.9,0.2,3.9,0.3,6.2,0.5c0.4,0,0.8,0.1,1.1,0.1
		c0.7,0,1.3,0.1,2,0.1c6.9,0.3,13.2,0.3,20.1,0c0.7,0,1.3-0.1,2-0.1c0.4,0,0.8-0.1,1.2-0.1c1.8-0.1,4.1-0.3,6.2-0.5
		c0.8-0.1,1.6-0.2,2.4-0.3l1-0.1c1.8-0.2,3.5-0.4,5.1-0.7c1-0.1,1.9-0.3,2.8-0.4l0.5-0.1c1.3-0.2,2.9-0.5,4.5-0.8c1-0.2,2-0.4,3-0.6
		c1.4-0.3,2.7-0.6,4-1c0.9-0.2,1.8-0.5,2.7-0.7c1.3-0.4,2.5-0.7,3.7-1.1l0.3-0.1c0.7-0.2,1.3-0.4,2-0.6c1.2-0.4,2.3-0.8,3.4-1.2
		l0.6-0.2c0.3-0.1,0.5-0.2,0.8-0.3V530.2z M-621.9,479c-0.3,0.2-0.7,0.4-1,0.6l-0.5,0.3c-0.9,0.5-1.9,0.9-3,1.5l-0.3,0.1
		c-0.2,0.1-0.4,0.2-0.6,0.3c-1.4,0.6-2.9,1.2-4.5,1.8c-0.2,0.1-0.4,0.1-0.6,0.2l-0.5,0.2c-1.5,0.5-3.2,1.1-4.9,1.6l-0.5,0.2
		c-0.2,0.1-0.4,0.1-0.6,0.2c-2,0.6-4.3,1.1-6.7,1.6c-0.4,0.1-0.7,0.1-1.1,0.2l-0.6,0.1c-2.5,0.5-4.9,0.9-7.4,1.2
		c-0.2,0-0.4,0.1-0.5,0.1c-0.2,0-0.3,0-0.5,0.1c-2.7,0.4-5.7,0.7-9.2,0.9c-0.8,0.1-1.5,0.1-2.3,0.1c-8,0.5-13.6,0.5-21.6,0
		c-0.8,0-1.6-0.1-2.3-0.1c-3.5-0.3-6.5-0.5-9.2-0.9c-0.1,0-0.3,0-0.4-0.1c-0.2,0-0.3-0.1-0.5-0.1c-2.5-0.4-5-0.8-7.4-1.2l-0.6-0.1
		c-0.4-0.1-0.7-0.1-1-0.2c-2.5-0.5-4.8-1.1-6.8-1.6c-0.2-0.1-0.4-0.1-0.5-0.2l-0.4-0.1c-1.8-0.5-3.6-1.1-5.2-1.7l-0.8-0.3
		c-1.7-0.6-3.2-1.2-4.7-1.8l-0.6-0.3c-1.4-0.6-2.6-1.2-3.6-1.7c-0.4-0.2-0.8-0.4-1.2-0.6v-24.9c18,6.7,36.9,9.8,56.2,9.2
		c19.3,0.5,38.2-2.5,56.2-9.2V479z M-678,439.3l-0.1,0l-0.1,0c-13.6,0.4-26.9-1.3-39.9-5.1c0.3-0.1,0.7-0.2,1-0.3l0.5-0.1
		c1.7-0.5,3.6-0.9,5.6-1.3l0.7-0.1c0.3-0.1,0.7-0.2,1-0.2c2.5-0.5,5.2-1,8.1-1.4c0.3,0,0.7-0.1,1-0.1c0.3,0,0.6-0.1,0.8-0.1
		c2.4-0.3,4.9-0.5,7.7-0.8c0.9-0.1,1.8-0.1,2.8-0.2c8-0.5,13.6-0.5,21.6,0h0c0.9,0.1,1.9,0.1,2.8,0.2c2.7,0.2,5.3,0.5,7.7,0.8
		c0.3,0,0.6,0.1,0.8,0.1c0.3,0,0.7,0.1,1,0.1c2.8,0.4,5.5,0.8,8.1,1.4c0.4,0.1,0.7,0.2,1.1,0.2l0.7,0.2c2,0.4,3.8,0.9,5.5,1.3
		l0.5,0.1c0.3,0.1,0.7,0.2,1,0.3C-651.1,438-664.5,439.7-678,439.3z M-734.4,556.6c0.2,0.1,0.5,0.2,0.8,0.3l0.6,0.2
		c1.1,0.4,2.2,0.8,3.4,1.2c0.7,0.2,1.4,0.4,2.1,0.7l0.3,0.1c1.2,0.4,2.4,0.7,3.7,1.1c0.9,0.2,1.8,0.5,2.7,0.7c1.3,0.3,2.6,0.6,4,1
		c1,0.2,2,0.4,3,0.6c1.6,0.3,3.1,0.6,4.5,0.8l0.3,0.1c1,0.2,1.9,0.3,2.9,0.5c1.6,0.2,3.3,0.4,5.1,0.7l0.9,0.1
		c0.8,0.1,1.6,0.2,2.5,0.3c1.9,0.2,3.9,0.3,6.2,0.5c0.4,0,0.8,0.1,1.1,0.1c0.7,0,1.3,0.1,2,0.1c6.9,0.3,13.2,0.3,20.2,0
		c0.7,0,1.3-0.1,2-0.1c0.4,0,0.8-0.1,1.2-0.1c2.3-0.1,4.2-0.3,6.2-0.5c0.9-0.1,1.7-0.2,2.5-0.3l0.9-0.1c1.8-0.2,3.5-0.4,5.1-0.6
		c1-0.1,1.9-0.3,2.8-0.4l0.5-0.1c1.4-0.2,3-0.5,4.5-0.8c1-0.2,2-0.4,3-0.6c1.4-0.3,2.7-0.6,4-1c0.9-0.2,1.8-0.5,2.7-0.7
		c1.3-0.4,2.5-0.7,3.7-1.1l0.3-0.1c0.7-0.2,1.3-0.4,2-0.6c1.2-0.4,2.3-0.8,3.4-1.2l0.6-0.2c0.3-0.1,0.5-0.2,0.8-0.3l0,24.8
		c-7.3,4.1-24.9,11.5-56.2,11.5c-31.3,0-48.9-7.4-56.2-11.4V556.6z"/>
	<path class="st0" d="M-243.4,220.5c-0.9-0.8-22.8-20.2-76.3-20.2s-75.4,19.4-76.3,20.2c-2.5,2.3-4,5.5-4,8.9v358.4
		c0,3.4,1.4,6.7,4,8.9c0.9,0.8,22.8,20.2,76.3,20.2s75.4-19.4,76.3-20.2c2.5-2.3,4-5.5,4-8.9V229.5
		C-239.4,226.1-240.9,222.8-243.4,220.5z M-374.6,301.1c1.1,0.4,2.2,0.8,3.4,1.2c0.7,0.2,1.4,0.5,2.1,0.7l0.2,0.1
		c1.2,0.4,2.4,0.7,3.7,1.1c0.9,0.2,1.8,0.5,2.7,0.7c1.3,0.3,2.7,0.6,4,1c1,0.2,2,0.4,3,0.6c1.6,0.3,3.2,0.6,4.5,0.8l0.4,0.1
		c0.9,0.2,1.9,0.3,2.9,0.5c1.6,0.2,3.3,0.4,5.1,0.6l0.9,0.1c0.8,0.1,1.6,0.2,2.5,0.3c1.9,0.2,3.9,0.3,6.2,0.5c0.4,0,0.8,0.1,1.1,0.1
		c0.7,0,1.3,0.1,2,0.1c6.9,0.3,13.2,0.3,20.2,0c0.7,0,1.3-0.1,2-0.1c0.4,0,0.8-0.1,1.1-0.1c2.2-0.1,4.2-0.3,6.2-0.5
		c0.8-0.1,1.6-0.2,2.4-0.3l1-0.1c1.9-0.2,3.5-0.4,5.1-0.7c1-0.1,1.9-0.3,2.9-0.5l0.4-0.1c1.3-0.2,2.9-0.5,4.5-0.8c1-0.2,2-0.4,3-0.6
		c1.4-0.3,2.7-0.6,4-1c0.9-0.2,1.8-0.5,2.7-0.7c1.3-0.4,2.5-0.7,3.7-1.1l0.3-0.1c0.7-0.2,1.4-0.4,2-0.6c1.2-0.4,2.3-0.8,3.4-1.2
		l0.6-0.2c0.3-0.1,0.5-0.2,0.8-0.3v24.8c-0.3,0.2-0.7,0.4-1,0.6l-0.5,0.3c-0.9,0.5-1.9,0.9-3,1.5l-0.3,0.1c-0.2,0.1-0.4,0.2-0.6,0.3
		c-1.4,0.6-2.9,1.2-4.5,1.8c-0.2,0.1-0.4,0.1-0.6,0.2l-0.5,0.2c-1.5,0.5-3.2,1.1-4.9,1.6l-0.5,0.2c-0.2,0.1-0.4,0.1-0.6,0.2
		c-2,0.6-4.3,1.1-6.7,1.6c-0.4,0.1-0.7,0.1-1.1,0.2l-0.6,0.1c-2.5,0.5-4.9,0.9-7.4,1.2c-0.2,0-0.4,0.1-0.5,0.1c-0.1,0-0.3,0-0.5,0.1
		c-2.7,0.4-5.7,0.7-9.2,0.9c-0.8,0.1-1.5,0.1-2.3,0.1c-8,0.5-13.6,0.5-21.6,0l-0.2,0c-0.7,0-1.5-0.1-2.2-0.1
		c-3.5-0.3-6.5-0.5-9.2-0.9c-0.2,0-0.3,0-0.5-0.1c-0.2,0-0.4-0.1-0.6-0.1c-2.5-0.3-4.9-0.8-7.3-1.2l-0.6-0.1
		c-0.4-0.1-0.7-0.1-1.1-0.2c-2.4-0.5-4.7-1.1-6.7-1.6c-0.2-0.1-0.4-0.1-0.7-0.2l-0.5-0.2c-1.8-0.5-3.4-1-5-1.6l-0.5-0.2
		c-0.2-0.1-0.4-0.1-0.6-0.2c-1.6-0.6-3.1-1.2-4.5-1.8c-0.2-0.1-0.4-0.2-0.7-0.3l-0.2-0.1c-1.2-0.5-2.2-1-3.2-1.5l-0.4-0.2
		c-0.4-0.2-0.7-0.4-1-0.6v-24.8c0.3,0.1,0.5,0.2,0.8,0.3L-374.6,301.1z M-374.6,352.3c1.1,0.4,2.2,0.8,3.4,1.2
		c0.7,0.2,1.4,0.4,2.1,0.7l0.3,0.1c1.2,0.4,2.4,0.7,3.7,1.1c0.9,0.2,1.8,0.5,2.7,0.7c1.3,0.3,2.7,0.6,4,1c1,0.2,2,0.4,3,0.6
		c1.6,0.3,3.2,0.6,4.5,0.8l0.4,0.1c0.9,0.2,1.9,0.3,2.9,0.5c1.6,0.2,3.3,0.4,5.1,0.7l1,0.1c0.8,0.1,1.6,0.2,2.4,0.3
		c1.9,0.2,3.9,0.3,6.2,0.5c0.4,0,0.8,0.1,1.2,0.1c0.7,0,1.3,0.1,2,0.1c6.9,0.3,13.2,0.3,20.2,0c0.7,0,1.3-0.1,2-0.1
		c0.4,0,0.8-0.1,1.1-0.1c2.2-0.1,4.2-0.3,6.2-0.5c0.9-0.1,1.7-0.2,2.5-0.3l0.9-0.1c1.8-0.2,3.5-0.4,5.1-0.7c1-0.1,1.9-0.3,2.9-0.5
		l0.4-0.1c1.3-0.2,2.9-0.5,4.5-0.8c1-0.2,2-0.4,3-0.6c1.4-0.3,2.7-0.6,4-1c0.9-0.2,1.8-0.5,2.7-0.7c1.3-0.4,2.5-0.7,3.7-1.1l0.4-0.1
		c0.7-0.2,1.3-0.4,2-0.6c1.2-0.4,2.3-0.8,3.4-1.2l0.6-0.2c0.3-0.1,0.5-0.2,0.8-0.3v24.8c-0.3,0.2-0.7,0.4-1,0.6l-0.5,0.3
		c-0.9,0.4-1.9,0.9-3,1.5l-0.3,0.1c-0.2,0.1-0.4,0.2-0.6,0.3c-1.4,0.6-2.9,1.2-4.5,1.8c-0.2,0.1-0.4,0.1-0.6,0.2l-0.5,0.2
		c-1.5,0.5-3.2,1.1-4.9,1.6l-0.5,0.2c-0.2,0.1-0.4,0.1-0.6,0.2c-2,0.6-4.3,1.1-6.7,1.6c-0.4,0.1-0.7,0.1-1.1,0.2l-0.6,0.1
		c-2.5,0.5-4.9,0.9-7.4,1.2c-0.2,0-0.4,0.1-0.5,0.1c-0.1,0-0.3,0-0.5,0.1c-2.7,0.4-5.7,0.7-9.2,0.9c-0.8,0.1-1.5,0.1-2.3,0.1
		c-8,0.5-13.6,0.5-21.6,0l-0.2,0c-0.7,0-1.5-0.1-2.2-0.1c-3.5-0.3-6.5-0.5-9.2-0.9c-0.2,0-0.3,0-0.5-0.1c-0.2,0-0.4-0.1-0.6-0.1
		c-2.4-0.3-4.9-0.8-7.3-1.2l-0.6-0.1c-0.4-0.1-0.7-0.1-1.1-0.2c-2.4-0.5-4.7-1.1-6.7-1.6c-0.2-0.1-0.4-0.1-0.7-0.2l-0.5-0.2
		c-1.8-0.5-3.4-1-5-1.6l-0.5-0.2c-0.2-0.1-0.4-0.1-0.5-0.2c-1.6-0.6-3.1-1.2-4.5-1.8c-0.2-0.1-0.4-0.2-0.6-0.3l-0.3-0.1
		c-1.2-0.5-2.2-1-3.2-1.5l-0.4-0.2c-0.4-0.2-0.7-0.4-1-0.6v-24.8c0.3,0.1,0.5,0.2,0.8,0.3L-374.6,352.3z M-374.6,403.5
		c1.1,0.4,2.2,0.8,3.4,1.2c0.7,0.2,1.4,0.4,2.1,0.7l0.3,0.1c1.2,0.4,2.4,0.7,3.7,1.1c0.9,0.2,1.8,0.5,2.7,0.7c1.3,0.3,2.7,0.6,4,1
		c1,0.2,2,0.4,3,0.6c1.6,0.3,3.2,0.6,4.5,0.8l0.5,0.1c0.9,0.2,1.8,0.3,2.8,0.5c1.6,0.2,3.3,0.4,5.1,0.7l1,0.1
		c0.8,0.1,1.6,0.2,2.4,0.3c1.9,0.2,3.9,0.3,6.2,0.5c0.4,0,0.8,0.1,1.2,0.1c0.6,0,1.3,0.1,2,0.1c6.9,0.3,13.2,0.3,20.1,0
		c0.7,0,1.4-0.1,2-0.1c0.4,0,0.7-0.1,1.1-0.1c2.2-0.1,4.2-0.3,6.2-0.5c0.9-0.1,1.7-0.2,2.5-0.3l0.9-0.1c1.9-0.2,3.5-0.4,5.1-0.7
		c1-0.1,2-0.3,2.9-0.5l0.3-0.1c1.5-0.3,3-0.5,4.5-0.8c1-0.2,2-0.4,3-0.6c1.4-0.3,2.7-0.6,4-1c0.9-0.2,1.8-0.5,2.7-0.7
		c1.3-0.4,2.5-0.7,3.7-1.1l0.3-0.1c0.7-0.2,1.4-0.4,2.1-0.7c1.2-0.4,2.3-0.8,3.4-1.2l0.5-0.2c0.3-0.1,0.5-0.2,0.8-0.3v24.8
		c-0.3,0.2-0.7,0.4-1,0.6l-0.5,0.3c-0.9,0.5-1.9,0.9-3,1.5l-0.3,0.1c-0.2,0.1-0.4,0.2-0.6,0.3c-1.4,0.6-2.9,1.2-4.5,1.8
		c-0.2,0.1-0.4,0.1-0.6,0.2l-0.4,0.2c-1.5,0.5-3.2,1.1-4.9,1.6l-0.5,0.2c-0.2,0.1-0.4,0.1-0.6,0.2c-2,0.6-4.3,1.1-6.7,1.6
		c-0.4,0.1-0.7,0.1-1.1,0.2l-0.6,0.1c-2.5,0.5-4.9,0.9-7.4,1.2c-0.2,0-0.4,0.1-0.5,0.1c-0.2,0-0.3,0-0.5,0.1
		c-2.7,0.4-5.7,0.7-9.2,0.9c-0.8,0.1-1.5,0.1-2.3,0.1c-8,0.5-13.6,0.5-21.6,0c-0.8,0-1.6-0.1-2.3-0.1c-3.5-0.3-6.5-0.5-9.2-0.9
		c-0.2,0-0.3,0-0.5-0.1c-0.2,0-0.4-0.1-0.6-0.1c-2.4-0.3-4.9-0.8-7.3-1.2l-0.6-0.1c-0.4-0.1-0.7-0.1-1.1-0.2
		c-2.4-0.5-4.7-1.1-6.7-1.6c-0.2-0.1-0.4-0.1-0.7-0.2l-0.5-0.2c-1.8-0.5-3.4-1-5-1.6l-0.5-0.2c-0.2-0.1-0.4-0.1-0.6-0.2
		c-1.6-0.6-3.1-1.2-4.5-1.8l-0.9-0.4c-1.2-0.5-2.2-1-3.2-1.5l-0.4-0.2c-0.4-0.2-0.7-0.4-1-0.6V403c0.3,0.1,0.5,0.2,0.8,0.3
		L-374.6,403.5z M-374.6,454.7c1.1,0.4,2.2,0.8,3.4,1.2c0.7,0.2,1.4,0.4,2.1,0.7l0.3,0.1c1.2,0.4,2.4,0.7,3.7,1.1
		c0.9,0.2,1.8,0.5,2.7,0.7c1.3,0.3,2.7,0.6,4,1c1,0.2,2,0.4,3,0.6c1.6,0.3,3.2,0.6,4.5,0.8l0.5,0.1c0.9,0.2,1.8,0.3,2.8,0.5
		c1.6,0.2,3.4,0.4,5.1,0.6l0.9,0.1c0.8,0.1,1.6,0.2,2.5,0.3c2,0.2,4.2,0.3,6.2,0.5c0.4,0,0.8,0.1,1.2,0.1c0.6,0,1.3,0.1,2,0.1
		c6.9,0.3,13.2,0.3,20.1,0c0.7,0,1.4-0.1,2-0.1c0.4,0,0.7-0.1,1.1-0.1c1.8-0.1,4.1-0.3,6.2-0.5c0.9-0.1,1.7-0.2,2.5-0.3l0.9-0.1
		c1.9-0.2,3.5-0.4,5.1-0.7c1-0.1,2-0.3,2.9-0.5l0.3-0.1c1.3-0.2,2.9-0.5,4.5-0.8c1-0.2,2-0.4,3-0.6c1.4-0.3,2.7-0.6,4-1
		c0.9-0.2,1.8-0.5,2.7-0.7c1.3-0.4,2.5-0.7,3.7-1.1l0.4-0.1c0.7-0.2,1.3-0.4,1.9-0.6c1.2-0.4,2.3-0.8,3.4-1.2l0.6-0.2
		c0.3-0.1,0.5-0.2,0.8-0.3V479c-0.3,0.2-0.7,0.4-1,0.6l-0.5,0.3c-0.9,0.5-1.9,0.9-3,1.5l-0.3,0.1c-0.2,0.1-0.4,0.2-0.6,0.3
		c-1.4,0.6-2.9,1.2-4.5,1.8c-0.2,0.1-0.4,0.1-0.6,0.2l-0.5,0.2c-1.5,0.5-3.2,1.1-4.9,1.6l-0.5,0.2c-0.2,0.1-0.4,0.1-0.6,0.2
		c-2,0.6-4.3,1.1-6.7,1.6c-0.4,0.1-0.7,0.1-1.1,0.2l-0.6,0.1c-2.5,0.5-4.9,0.9-7.4,1.2c-0.2,0-0.4,0.1-0.5,0.1c-0.2,0-0.3,0-0.5,0.1
		c-2.7,0.4-5.7,0.7-9.2,0.9c-0.8,0.1-1.5,0.1-2.3,0.1c-8,0.5-13.6,0.5-21.6,0l-0.3,0c-0.7,0-1.4-0.1-2-0.1c-3.5-0.3-6.5-0.5-9.2-0.9
		c-0.2,0-0.3,0-0.5-0.1c-0.2,0-0.4-0.1-0.6-0.1c-2.5-0.3-4.9-0.8-7.3-1.2l-0.5-0.1c-0.4-0.1-0.8-0.1-1.1-0.2
		c-2.4-0.5-4.7-1.1-6.7-1.6c-0.2-0.1-0.4-0.1-0.7-0.2l-0.5-0.2c-1.8-0.5-3.4-1-5-1.6l-0.5-0.2c-0.2-0.1-0.4-0.1-0.6-0.2
		c-1.6-0.6-3.1-1.2-4.5-1.8c-0.2-0.1-0.4-0.2-0.6-0.3l-0.3-0.1c-1.2-0.5-2.3-1-3.2-1.5l-0.4-0.2c-0.4-0.2-0.7-0.4-1-0.6v-24.8
		c0.3,0.1,0.5,0.2,0.8,0.3L-374.6,454.7z M-374.6,505.9c1.1,0.4,2.2,0.8,3.4,1.2c0.7,0.2,1.4,0.4,2.1,0.7l0.2,0.1
		c1.2,0.4,2.4,0.7,3.7,1.1c0.9,0.2,1.8,0.5,2.7,0.7c1.3,0.3,2.6,0.6,4,1c1,0.2,2,0.4,3,0.6c1.6,0.3,3.1,0.6,4.5,0.8l0.4,0.1
		c1,0.2,1.9,0.3,2.9,0.5c1.7,0.3,3.5,0.5,5.1,0.7l0.9,0.1c0.8,0.1,1.6,0.2,2.5,0.3c1.9,0.2,3.9,0.3,6.2,0.5c0.4,0,0.8,0.1,1.1,0.1
		c0.7,0,1.3,0.1,2,0.1c6.9,0.3,13.2,0.3,20.1,0c0.7,0,1.3-0.1,2-0.1c0.4,0,0.8-0.1,1.2-0.1c1.8-0.1,4.1-0.3,6.2-0.5
		c0.8-0.1,1.6-0.2,2.4-0.3l1-0.1c1.9-0.2,3.5-0.4,5.1-0.7c1-0.1,1.9-0.3,2.8-0.5l0.5-0.1c1.3-0.2,2.9-0.5,4.5-0.8c1-0.2,2-0.4,3-0.6
		c1.4-0.3,2.7-0.6,4-1c0.9-0.2,1.8-0.5,2.7-0.7c1.3-0.4,2.5-0.7,3.7-1.1l0.4-0.1c0.7-0.2,1.3-0.4,2-0.6c1.2-0.4,2.3-0.8,3.4-1.2
		l0.6-0.2c0.3-0.1,0.5-0.2,0.8-0.3v24.8c-0.3,0.2-0.7,0.4-1,0.6l-0.5,0.3c-0.9,0.4-1.9,0.9-3,1.5l-0.3,0.1c-0.2,0.1-0.4,0.2-0.6,0.3
		c-1.4,0.6-2.9,1.2-4.5,1.8c-0.2,0.1-0.4,0.1-0.6,0.2l-0.5,0.2c-1.5,0.5-3.2,1.1-4.9,1.6l-0.5,0.1c-0.2,0.1-0.4,0.1-0.6,0.2
		c-2,0.6-4.3,1.1-6.7,1.6c-0.4,0.1-0.7,0.1-1.1,0.2l-0.6,0.1c-2.5,0.5-4.9,0.9-7.4,1.2c-0.2,0-0.4,0.1-0.6,0.1c-0.1,0-0.3,0-0.4,0.1
		c-2.7,0.4-5.7,0.7-9.2,0.9c-0.8,0.1-1.5,0.1-2.3,0.1c-8,0.5-13.6,0.5-21.6,0l-0.3,0c-0.7,0-1.4-0.1-2-0.1c-3.5-0.3-6.5-0.5-9.2-0.9
		c-0.2,0-0.3,0-0.5-0.1c-0.2,0-0.4-0.1-0.6-0.1c-2.5-0.3-4.9-0.8-7.3-1.2l-0.5-0.1c-0.4-0.1-0.8-0.1-1.1-0.2
		c-2.4-0.5-4.7-1.1-6.7-1.6c-0.2-0.1-0.4-0.1-0.7-0.2l-0.5-0.2c-1.8-0.5-3.4-1-5-1.6l-0.5-0.2c-0.2-0.1-0.4-0.1-0.6-0.2
		c-1.6-0.6-3.1-1.2-4.5-1.8c-0.2-0.1-0.4-0.2-0.6-0.3l-0.3-0.1c-1.2-0.5-2.3-1-3.2-1.5l-0.4-0.2c-0.4-0.2-0.7-0.4-1-0.6v-24.8
		c0.2,0.1,0.5,0.2,0.7,0.3L-374.6,505.9z M-263.5,274.2c-0.3,0.2-0.7,0.4-1,0.6l-0.5,0.3c-0.9,0.4-1.9,0.9-3,1.5l-0.3,0.1
		c-0.2,0.1-0.4,0.2-0.6,0.3c-1.4,0.6-2.9,1.2-4.5,1.8c-0.2,0.1-0.4,0.1-0.6,0.2l-0.5,0.2c-1.5,0.5-3.2,1.1-4.9,1.6l-0.5,0.2
		c-0.2,0.1-0.4,0.1-0.6,0.2c-2,0.6-4.3,1.1-6.7,1.6c-0.4,0.1-0.8,0.2-1.2,0.2l-0.5,0.1c-2.5,0.5-4.9,0.9-7.4,1.2
		c-0.2,0-0.4,0.1-0.5,0.1c-0.1,0-0.3,0-0.5,0.1c-2.7,0.4-5.7,0.7-9.2,0.9c-0.8,0.1-1.5,0.1-2.3,0.1c-4,0.2-7.4,0.3-10.8,0.3
		c-3.3,0-6.8-0.1-10.9-0.3c-0.8,0-1.5-0.1-2.3-0.1c-3.5-0.3-6.5-0.6-9.2-0.9c-0.1,0-0.3,0-0.4-0.1c-0.2,0-0.3-0.1-0.5-0.1
		c-2.5-0.3-4.9-0.8-7.4-1.2l-0.6-0.1c-0.4-0.1-0.7-0.1-1.1-0.2c-2.5-0.5-4.8-1.1-6.8-1.6c-0.2-0.1-0.4-0.1-0.5-0.2l-0.5-0.1
		c-1.8-0.5-3.6-1.1-5.2-1.6l-0.8-0.3c-1.7-0.6-3.2-1.2-4.7-1.8l-0.6-0.3c-1.4-0.6-2.6-1.2-3.6-1.7c-0.4-0.2-0.8-0.4-1.2-0.6v-24.9
		c18,6.7,36.9,9.8,56.2,9.2c19.3,0.6,38.2-2.5,56.2-9.2V274.2z M-319.6,234.5L-319.6,234.5h-0.2c-13.6,0.4-26.9-1.3-39.9-5.1
		c0.3-0.1,0.7-0.2,1-0.3l0.5-0.1c1.7-0.5,3.6-0.9,5.6-1.3l0.7-0.1c0.3-0.1,0.7-0.2,1-0.2c2.5-0.5,5.2-1,8.1-1.4c0.3,0,0.7-0.1,1-0.1
		c0.3,0,0.6-0.1,0.8-0.1c2.4-0.3,4.9-0.5,7.7-0.8c0.9-0.1,1.8-0.1,2.8-0.2c8-0.5,13.6-0.5,21.6,0h0c0.9,0.1,1.9,0.1,2.8,0.2
		c2.7,0.2,5.3,0.5,7.6,0.8c0.3,0,0.6,0.1,0.9,0.1c0.3,0,0.7,0.1,1,0.1c2.8,0.4,5.5,0.8,8.1,1.4c0.4,0.1,0.7,0.2,1.1,0.2l0.7,0.2
		c2,0.4,3.8,0.9,5.5,1.3l0.5,0.1c0.3,0.1,0.7,0.2,1,0.3C-292.7,233.2-306.1,234.9-319.6,234.5z M-376,556.6c0.2,0.1,0.5,0.2,0.8,0.3
		l0.6,0.2c1.1,0.4,2.2,0.8,3.4,1.2c0.7,0.2,1.4,0.4,2.1,0.7l0.2,0.1c1.2,0.4,2.4,0.7,3.7,1.1c0.9,0.2,1.8,0.5,2.7,0.7
		c1.3,0.3,2.6,0.6,4,1c1,0.2,2,0.4,3,0.6c1.6,0.3,3.1,0.6,4.5,0.8l0.3,0.1c1,0.2,1.9,0.3,3,0.5c1.6,0.2,3.3,0.4,5.1,0.7l0.9,0.1
		c0.8,0.1,1.6,0.2,2.5,0.3c1.9,0.2,3.9,0.3,6.2,0.5c0.4,0,0.8,0.1,1.1,0.1c0.7,0,1.3,0.1,2,0.1c6.9,0.3,13.2,0.3,20.2,0
		c0.7,0,1.3-0.1,2-0.1c0.4,0,0.8-0.1,1.2-0.1c2.3-0.1,4.2-0.3,6.2-0.5c0.9-0.1,1.7-0.2,2.5-0.3l0.9-0.1c1.8-0.2,3.5-0.4,5.1-0.6
		c1-0.1,1.9-0.3,2.8-0.5l0.5-0.1c1.4-0.2,3-0.5,4.5-0.8c1-0.2,2-0.4,3-0.6c1.4-0.3,2.7-0.6,4-1c0.9-0.2,1.8-0.5,2.7-0.7
		c1.3-0.4,2.5-0.7,3.7-1.1l0.4-0.1c0.7-0.2,1.3-0.4,2-0.6c1.2-0.4,2.3-0.8,3.4-1.2l0.6-0.2c0.3-0.1,0.5-0.2,0.8-0.3l0,24.8
		c-7.3,4.1-24.9,11.5-56.2,11.5c-31.3,0-48.9-7.4-56.2-11.4V556.6z"/>
	<path class="st0" d="M-498.9,302.8c-53.5,0-75.4,19.4-76.3,20.2c-2.5,2.3-4,5.5-4,8.9v256c0,3.4,1.4,6.7,4,8.9
		c0.9,0.8,22.8,20.2,76.3,20.2c53.5,0,75.4-19.4,76.3-20.2c2.5-2.3,4-5.5,4-8.9v-256c0-3.4-1.4-6.7-4-8.9
		C-423.5,322.1-445.4,302.8-498.9,302.8z M-498.8,336.9L-498.8,336.9h-0.2c-13.6,0.4-26.9-1.3-39.9-5.1c0.3-0.1,0.7-0.2,1-0.3
		l0.5-0.1c1.7-0.5,3.6-0.9,5.6-1.3l0.7-0.1c0.3-0.1,0.7-0.2,1-0.2c2.5-0.5,5.2-1,8.1-1.4c0.3,0,0.7-0.1,1-0.1c0.3,0,0.6-0.1,0.8-0.1
		c2.4-0.3,4.9-0.5,7.7-0.8c0.9-0.1,1.8-0.1,2.8-0.2c8-0.5,13.6-0.5,21.6,0h0c0.9,0.1,1.9,0.1,2.8,0.2c2.7,0.2,5.3,0.5,7.6,0.8
		c0.3,0,0.6,0.1,0.8,0.1c0.3,0,0.7,0.1,1,0.1c2.8,0.4,5.5,0.8,8.1,1.4c0.4,0.1,0.7,0.2,1.1,0.2l0.7,0.2c2,0.4,3.8,0.9,5.5,1.3
		l0.5,0.1c0.3,0.1,0.7,0.2,1,0.3C-471.9,335.6-485.3,337.3-498.8,336.9z M-498.9,361c19.3,0.6,38.2-2.5,56.2-9.2v24.9
		c-0.3,0.2-0.7,0.4-1,0.6l-0.5,0.3c-0.9,0.4-1.9,0.9-3,1.5l-0.3,0.1c-0.2,0.1-0.4,0.2-0.6,0.3c-1.4,0.6-2.9,1.2-4.5,1.8
		c-0.2,0.1-0.4,0.1-0.6,0.2l-0.5,0.2c-1.5,0.5-3.2,1.1-4.9,1.6l-0.5,0.1c-0.2,0.1-0.4,0.1-0.6,0.2c-2,0.6-4.3,1.1-6.7,1.6
		c-0.4,0.1-0.7,0.1-1.1,0.2l-0.6,0.1c-2.5,0.5-4.9,0.9-7.4,1.2c-0.2,0-0.4,0.1-0.5,0.1c-0.1,0-0.3,0-0.5,0.1
		c-2.7,0.4-5.7,0.7-9.2,0.9c-0.8,0.1-1.5,0.1-2.3,0.1c-4,0.2-7.4,0.3-10.8,0.3c-3.4,0-6.8-0.1-10.9-0.3c-0.8,0-1.5-0.1-2.2-0.1
		c-3.5-0.3-6.5-0.5-9.2-0.9c-0.1,0-0.3,0-0.4-0.1c-0.2,0-0.3-0.1-0.5-0.1c-2.5-0.3-4.9-0.8-7.4-1.2l-0.6-0.1
		c-0.4-0.1-0.7-0.1-1.1-0.2c-2.5-0.5-4.8-1.1-6.8-1.6c-0.2-0.1-0.4-0.1-0.5-0.2l-0.5-0.1c-1.9-0.5-3.6-1.1-5.2-1.6l-0.8-0.3
		c-1.7-0.6-3.2-1.2-4.7-1.8l-0.6-0.3c-1.4-0.6-2.6-1.2-3.6-1.7c-0.4-0.2-0.8-0.4-1.2-0.6v-24.9C-537.1,358.4-518.2,361.5-498.9,361z
		 M-553.8,403.5c1.1,0.4,2.2,0.8,3.4,1.2c0.7,0.2,1.4,0.4,2.1,0.7l0.3,0.1c1.2,0.4,2.4,0.7,3.7,1.1c0.9,0.2,1.8,0.5,2.7,0.7
		c1.3,0.3,2.7,0.6,4,1c1,0.2,2,0.4,3,0.6c1.6,0.3,3.2,0.6,4.5,0.8l0.5,0.1c0.9,0.2,1.8,0.3,2.8,0.5c1.6,0.2,3.3,0.4,5.1,0.7l1,0.1
		c0.8,0.1,1.6,0.2,2.4,0.3c1.9,0.2,3.9,0.3,6.2,0.5c0.4,0,0.8,0.1,1.2,0.1c0.6,0,1.3,0.1,2,0.1c7,0.3,13.2,0.3,20.2,0
		c0.7,0,1.4-0.1,2-0.1c0.4,0,0.7-0.1,1.1-0.1c2.2-0.1,4.2-0.3,6.2-0.5c0.8-0.1,1.7-0.2,2.5-0.3l0.9-0.1c1.9-0.2,3.5-0.4,5.1-0.7
		c1-0.1,2-0.3,2.9-0.5l0.3-0.1c1.3-0.2,2.9-0.5,4.5-0.8c1-0.2,2-0.4,3-0.6c1.4-0.3,2.7-0.6,4-1c0.9-0.2,1.8-0.5,2.7-0.7
		c1.3-0.4,2.5-0.7,3.7-1.1l0.2-0.1c0.7-0.2,1.4-0.4,2.1-0.7c1.2-0.4,2.3-0.8,3.4-1.2l0.6-0.2c0.3-0.1,0.5-0.2,0.8-0.3v24.8
		c-0.3,0.2-0.7,0.4-1,0.6l-0.5,0.3c-0.9,0.4-1.9,0.9-3,1.5l-0.3,0.1c-0.2,0.1-0.4,0.2-0.6,0.3c-1.4,0.6-2.9,1.2-4.5,1.8
		c-0.2,0.1-0.4,0.1-0.6,0.2l-0.5,0.2c-1.5,0.5-3.2,1.1-4.9,1.6l-0.5,0.2c-0.2,0.1-0.4,0.1-0.6,0.2c-2,0.6-4.3,1.1-6.7,1.6
		c-0.4,0.1-0.7,0.1-1.1,0.2l-0.6,0.1c-2.5,0.5-4.9,0.9-7.4,1.2c-0.2,0-0.4,0.1-0.6,0.1c-0.1,0-0.3,0-0.4,0.1
		c-2.7,0.4-5.7,0.7-9.2,0.9c-0.8,0.1-1.5,0.1-2.3,0.1c-8,0.5-13.6,0.5-21.6,0c-0.8,0-1.6-0.1-2.3-0.1c-3.5-0.3-6.5-0.5-9.2-0.9
		c-0.2,0-0.3,0-0.5-0.1c-0.2,0-0.4-0.1-0.6-0.1c-2.4-0.3-4.9-0.8-7.3-1.2l-0.6-0.1c-0.4-0.1-0.7-0.1-1.1-0.2
		c-2.4-0.5-4.7-1.1-6.7-1.6c-0.2-0.1-0.4-0.1-0.7-0.2l-0.5-0.2c-1.8-0.5-3.4-1-5-1.6l-0.5-0.2c-0.2-0.1-0.4-0.1-0.6-0.2
		c-1.6-0.6-3.1-1.2-4.5-1.8l-0.9-0.4c-1.2-0.5-2.2-1-3.2-1.5l-0.4-0.2c-0.4-0.2-0.7-0.4-1-0.6V403c0.3,0.1,0.5,0.2,0.8,0.3
		L-553.8,403.5z M-553.8,454.7c1.1,0.4,2.2,0.8,3.4,1.2c0.7,0.2,1.4,0.4,2.1,0.7l0.3,0.1c1.2,0.4,2.4,0.7,3.7,1.1
		c0.9,0.2,1.8,0.5,2.7,0.7c1.3,0.3,2.7,0.6,4,1c1,0.2,2,0.4,3,0.6c1.6,0.3,3.2,0.6,4.5,0.8l0.5,0.1c0.9,0.2,1.8,0.3,2.8,0.5
		c1.6,0.2,3.4,0.4,5.1,0.6l0.9,0.1c0.8,0.1,1.6,0.2,2.5,0.3c2,0.2,4.2,0.3,6.2,0.5c0.4,0,0.8,0.1,1.2,0.1c0.6,0,1.3,0.1,2,0.1
		c7,0.3,13.2,0.3,20.2,0c0.7,0,1.4-0.1,2-0.1c0.4,0,0.7-0.1,1.1-0.1c1.8-0.1,4.1-0.3,6.2-0.5c0.8-0.1,1.7-0.2,2.5-0.3l0.9-0.1
		c1.9-0.2,3.5-0.4,5.1-0.7c1-0.1,2-0.3,2.9-0.5l0.3-0.1c1.3-0.2,2.9-0.5,4.5-0.8c1-0.2,2-0.4,3-0.6c1.4-0.3,2.7-0.6,4-1
		c0.9-0.2,1.8-0.5,2.7-0.7c1.3-0.4,2.5-0.7,3.7-1.1l0.4-0.1c0.7-0.2,1.3-0.4,1.9-0.6c1.2-0.4,2.3-0.8,3.4-1.2l0.6-0.2
		c0.3-0.1,0.5-0.2,0.8-0.3V479c-0.3,0.2-0.7,0.4-1,0.6l-0.5,0.3c-0.9,0.5-1.9,0.9-3,1.5l-0.3,0.1c-0.2,0.1-0.4,0.2-0.6,0.3
		c-1.4,0.6-2.9,1.2-4.5,1.8c-0.2,0.1-0.4,0.1-0.6,0.2l-0.5,0.2c-1.5,0.5-3.2,1.1-4.9,1.6l-0.5,0.2c-0.2,0.1-0.4,0.1-0.6,0.2
		c-2,0.6-4.3,1.1-6.7,1.6c-0.4,0.1-0.7,0.1-1.1,0.2l-0.6,0.1c-2.5,0.5-4.9,0.9-7.4,1.2c-0.2,0-0.4,0.1-0.5,0.1c-0.1,0-0.3,0-0.5,0.1
		c-2.7,0.4-5.7,0.7-9.2,0.9c-0.8,0.1-1.5,0.1-2.3,0.1c-8,0.5-13.6,0.5-21.6,0l-0.3,0c-0.7,0-1.4-0.1-2-0.1c-3.5-0.3-6.5-0.5-9.2-0.9
		c-0.2,0-0.3,0-0.5-0.1c-0.2,0-0.4-0.1-0.6-0.1c-2.5-0.3-4.9-0.8-7.3-1.2l-0.5-0.1c-0.4-0.1-0.8-0.1-1.1-0.2
		c-2.4-0.5-4.7-1.1-6.7-1.6c-0.2-0.1-0.4-0.1-0.7-0.2l-0.5-0.2c-1.8-0.5-3.4-1-5-1.6l-0.5-0.2c-0.2-0.1-0.4-0.1-0.6-0.2
		c-1.6-0.6-3.1-1.2-4.5-1.8c-0.2-0.1-0.4-0.2-0.6-0.3l-0.3-0.1c-1.2-0.5-2.3-1-3.2-1.5l-0.4-0.2c-0.4-0.2-0.7-0.4-1-0.6v-24.8
		c0.3,0.1,0.5,0.2,0.8,0.3L-553.8,454.7z M-553.8,505.9c1.1,0.4,2.2,0.8,3.4,1.2c0.7,0.2,1.4,0.4,2.1,0.7l0.2,0.1
		c1.2,0.4,2.4,0.7,3.7,1.1c0.9,0.2,1.8,0.5,2.7,0.7c1.3,0.3,2.6,0.6,4,1c1,0.2,2,0.4,3,0.6c1.6,0.3,3.1,0.6,4.5,0.8l0.4,0.1
		c0.9,0.2,1.9,0.3,2.9,0.5c1.7,0.3,3.5,0.5,5.1,0.7l0.9,0.1c0.8,0.1,1.6,0.2,2.5,0.3c1.9,0.2,3.9,0.3,6.2,0.5c0.4,0,0.8,0.1,1.1,0.1
		c0.7,0,1.3,0.1,2,0.1c6.9,0.3,13.2,0.3,20.2,0c0.7,0,1.3-0.1,2-0.1c0.4,0,0.8-0.1,1.2-0.1c1.8-0.1,4.1-0.3,6.2-0.5
		c0.8-0.1,1.6-0.2,2.4-0.3l1-0.1c1.9-0.2,3.5-0.4,5.1-0.7c1-0.1,1.9-0.3,2.8-0.5l0.5-0.1c1.3-0.2,2.9-0.5,4.5-0.8c1-0.2,2-0.4,3-0.6
		c1.4-0.3,2.7-0.6,4-1c0.9-0.2,1.8-0.5,2.7-0.7c1.3-0.4,2.5-0.7,3.7-1.1l0.3-0.1c0.7-0.2,1.3-0.4,2-0.6c1.2-0.4,2.3-0.8,3.4-1.2
		l0.6-0.2c0.3-0.1,0.5-0.2,0.8-0.3v24.8c-0.3,0.2-0.7,0.4-1,0.6l-0.5,0.3c-0.9,0.4-1.9,0.9-3,1.5l-0.3,0.1c-0.2,0.1-0.4,0.2-0.6,0.3
		c-1.4,0.6-2.9,1.2-4.5,1.8c-0.2,0.1-0.4,0.1-0.6,0.2l-0.5,0.2c-1.5,0.5-3.2,1.1-4.9,1.6l-0.5,0.1c-0.2,0.1-0.4,0.1-0.6,0.2
		c-2,0.6-4.3,1.1-6.7,1.6c-0.4,0.1-0.7,0.1-1.1,0.2l-0.6,0.1c-2.5,0.5-4.9,0.9-7.4,1.2c-0.2,0-0.4,0.1-0.6,0.1c-0.1,0-0.3,0-0.4,0.1
		c-2.7,0.4-5.7,0.7-9.2,0.9c-0.8,0.1-1.5,0.1-2.3,0.1c-8,0.5-13.6,0.5-21.6,0l-0.3,0c-0.7,0-1.4-0.1-2-0.1c-3.5-0.3-6.5-0.5-9.2-0.9
		c-0.2,0-0.3,0-0.5-0.1c-0.2,0-0.4-0.1-0.6-0.1c-2.5-0.3-4.9-0.8-7.3-1.2l-0.5-0.1c-0.4-0.1-0.8-0.1-1.1-0.2
		c-2.4-0.5-4.7-1.1-6.7-1.6c-0.2-0.1-0.4-0.1-0.7-0.2l-0.5-0.2c-1.8-0.5-3.4-1-5-1.6l-0.5-0.2c-0.2-0.1-0.4-0.1-0.5-0.2
		c-1.6-0.6-3.1-1.2-4.5-1.8c-0.2-0.1-0.4-0.2-0.6-0.3l-0.3-0.1c-1.2-0.5-2.3-1-3.2-1.5l-0.4-0.2c-0.4-0.2-0.7-0.4-1-0.6v-24.8
		c0.2,0.1,0.5,0.2,0.7,0.3L-553.8,505.9z M-553.8,557.1c1.1,0.4,2.2,0.8,3.4,1.2c0.7,0.2,1.4,0.4,2.1,0.7l0.2,0.1
		c1.2,0.4,2.4,0.7,3.7,1.1c0.9,0.2,1.8,0.5,2.7,0.7c1.3,0.3,2.6,0.6,4,1c1,0.2,2,0.4,3,0.6c1.6,0.3,3.1,0.6,4.5,0.8l0.4,0.1
		c1,0.2,1.9,0.3,2.9,0.5c1.6,0.2,3.3,0.4,5.1,0.7l0.9,0.1c0.8,0.1,1.6,0.2,2.5,0.3c1.9,0.2,3.9,0.3,6.2,0.5c0.4,0,0.8,0.1,1.1,0.1
		c0.7,0,1.3,0.1,2,0.1c6.9,0.3,13.2,0.3,20.2,0c0.7,0,1.3-0.1,2-0.1c0.4,0,0.8-0.1,1.2-0.1c2.3-0.1,4.2-0.3,6.2-0.5
		c0.8-0.1,1.7-0.2,2.5-0.3l0.9-0.1c1.8-0.2,3.5-0.4,5.1-0.6c1-0.1,1.9-0.3,2.8-0.5l0.5-0.1c1.4-0.2,3-0.5,4.5-0.8c1-0.2,2-0.4,3-0.6
		c1.4-0.3,2.7-0.6,4-1c0.9-0.2,1.8-0.5,2.7-0.7c1.3-0.4,2.5-0.7,3.7-1.1l0.3-0.1c0.7-0.2,1.3-0.4,2-0.6c1.2-0.4,2.3-0.8,3.4-1.2
		l0.6-0.2c0.3-0.1,0.5-0.2,0.8-0.3l0,24.8c-7.3,4.1-24.9,11.5-56.2,11.5c-31.3,0-48.9-7.4-56.2-11.4v-24.8c0.2,0.1,0.5,0.2,0.7,0.3
		L-553.8,557.1z"/>
</g>
</svg>
