<?xml version="1.0" encoding="utf-8"?>
<!-- Generator: Adobe Illustrator 19.1.0, SVG Export Plug-In . SVG Version: 6.00 Build 0)  -->
<svg version="1.1" id="Layer_1" xmlns="http://www.w3.org/2000/svg" xmlns:xlink="http://www.w3.org/1999/xlink" x="0px" y="0px"
	 viewBox="-717 165.1 512 470.6" style="enable-background:new -717 165.1 512 470.6;" xml:space="preserve">
<style type="text/css">
	.st0{fill:#0077BE;}
</style>
<g>
	<path class="st0" d="M-215.2,332.9h-6.8c-6.7-33.8-40.8-93.3-55.9-118.5c7.1-4.9,11.7-13,11.7-22.3c0-14.9-12.1-27-27-27
		c-14.9,0-27,12.1-27,27c0,9.2,4.7,17.4,11.7,22.3c-15.1,25.2-49.3,84.7-55.9,118.5h-6.8c-5.6,0-10.2,4.6-10.2,10.2
		c0,48.7,39.6,88.2,88.2,88.2s88.2-39.6,88.2-88.2C-205,337.4-209.6,332.9-215.2,332.9z M-293.2,185.5c3.7,0,6.6,3,6.6,6.6
		c0,3.7-3,6.6-6.6,6.6c-3.7,0-6.6-3-6.6-6.6C-299.9,188.5-296.9,185.5-293.2,185.5z M-293.3,228.6c17.3,29.1,43.9,77.7,50.5,104.3
		h-100.9C-337.5,308-313.5,262.6-293.3,228.6z M-293.2,410.9c-33.9,0-62.1-25.1-67.1-57.6h134.2
		C-231.1,385.9-259.3,410.9-293.2,410.9z"/>
	<path class="st0" d="M-370.2,577.1h-27v-25.9c0-5.6-4.6-10.2-10.2-10.2h-25.9V256.1c6.7-6.6,11-15.6,11.5-25.6l43.1-9.3
		c5.5-1.2,9-6.6,7.8-12.1c-1.2-5.5-6.6-9-12.1-7.8l-43.2,9.3c-6.5-12.3-19.4-20.7-34.3-20.7c-20.6,0-37.4,16.1-38.6,36.4
		l-107.8,23.2c-4.9-6.7-12.9-11.1-21.8-11.1c-14.9,0-27,12.1-27,27c0,9.2,4.7,17.4,11.7,22.3c-15.1,25.2-49.3,84.7-55.9,118.5h-6.8
		c-5.6,0-10.2,4.6-10.2,10.2c0,48.7,39.6,88.2,88.2,88.2c48.7,0,88.2-39.6,88.2-88.2c0-5.6-4.6-10.2-10.2-10.2h-6.8
		c-6.7-33.8-40.8-93.3-55.9-118.5c6.1-4.2,10.4-10.8,11.5-18.4l107.1-23.1c1.9,3.7,4.3,7,7.2,9.8V541h-25.9
		c-5.6,0-10.2,4.6-10.2,10.2v25.9h-27c-5.6,0-10.2,4.6-10.2,10.2v38.2c0,5.6,4.6,10.2,10.2,10.2h180.5c5.6,0,10.2-4.6,10.2-10.2
		v-38.2C-360,581.7-364.6,577.1-370.2,577.1z M-460.5,210.3c10.1,0,18.3,8.2,18.3,18.3s-8.2,18.3-18.3,18.3
		c-10.1,0-18.3-8.2-18.3-18.3S-470.6,210.3-460.5,210.3z M-628.8,258.8c3.7,0,6.6,3,6.6,6.6c0,3.7-3,6.6-6.6,6.6s-6.6-3-6.6-6.6
		C-635.4,261.7-632.4,258.8-628.8,258.8z M-628.8,484.2c-33.9,0-62.1-25.1-67.1-57.6h134.2C-566.6,459.1-594.8,484.2-628.8,484.2z
		 M-679.2,406.1c6.2-24.9,30.2-70.3,50.4-104.3c17.3,29.1,43.9,77.7,50.5,104.3H-679.2z M-467.3,266.7c2.2,0.4,4.5,0.6,6.8,0.6
		s4.6-0.2,6.8-0.6V541h-13.6V266.7z M-417.6,561.4v15.7h-85.8v-15.7H-417.6z M-380.4,597.5v17.8h-160.1v-17.8L-380.4,597.5
		L-380.4,597.5z"/>
	<path class="st0" d="M-349,215.2c0.7,0,1.4-0.1,2.2-0.2l7.4-1.6c5.5-1.2,9-6.6,7.8-12.1c-1.2-5.5-6.6-9-12.1-7.8l-7.4,1.6
		c-5.5,1.2-9,6.6-7.8,12.1C-357.9,212-353.7,215.2-349,215.2z"/>
</g>
</svg>
